<svg xmlns="http://www.w3.org/2000/svg" width="25" height="20" viewBox="0 0 25 20">
    <g fill="#929292" fill-rule="evenodd">
        <path fill-rule="nonzero" d="M1.136 3.684v8.46a2.547 2.547 0 0 0 2.548 2.547h9.33c.39 0 .765.156 1.04.432l3.427 3.427c.554.554 1.5.161 1.5-.62v-1.765c0-.812.659-1.472 1.472-1.472A2.547 2.547 0 0 0 23 12.145v-8.46a2.556 2.556 0 0 0-2.548-2.549H3.684a2.548 2.548 0 0 0-2.548 2.548zM0 3.684A3.684 3.684 0 0 1 3.684 0h16.768a3.692 3.692 0 0 1 3.685 3.685v8.46a3.683 3.683 0 0 1-3.684 3.684.337.337 0 0 0-.336.336v1.764c0 1.795-2.171 2.694-3.439 1.424l-3.43-3.428a.333.333 0 0 0-.234-.097h-9.33A3.683 3.683 0 0 1 0 12.144v-8.46z"/>
        <path d="M4.91 4.525a.657.657 0 0 1 0 1.311.657.657 0 0 1 0-1.31m0 2.497a1.845 1.845 0 0 0 1.843-1.842A1.845 1.845 0 0 0 4.91 3.338 1.845 1.845 0 0 0 3.068 5.18 1.845 1.845 0 0 0 4.91 7.023M9.538 4.525a.657.657 0 0 1 0 1.311.657.657 0 0 1 0-1.31m0 2.497a1.845 1.845 0 0 0 1.842-1.842 1.845 1.845 0 0 0-1.842-1.843A1.845 1.845 0 0 0 7.695 5.18c0 1.016.827 1.842 1.843 1.842M14.166 4.525a.657.657 0 0 1 0 1.311.656.656 0 0 1 0-1.311m0 2.498a1.844 1.844 0 1 0-1.843-1.843c0 1.017.826 1.843 1.843 1.843"/>
    </g>
</svg>
