<svg xmlns="http://www.w3.org/2000/svg" width="20" height="20" viewBox="0 0 20 20">
  <g>
    <path d="M19.6135266,20 L9.90338164,20 C9.68995169,20 9.51690821,19.8269565 9.51690821,19.6135266 C9.51690821,19.4000966 9.68995169,19.2270531 9.90338164,19.2270531 L19.2270531,19.2270531 L19.2270531,0.77294686 L9.90338164,0.77294686 C9.68995169,0.77294686 9.51690821,0.599903382 9.51690821,0.38647343 C9.51690821,0.173043478 9.68995169,0 9.90338164,0 L19.6135266,0 C19.8269565,0 20,0.173043478 20,0.38647343 L20,19.6135266 C20,19.8269565 19.8269565,20 19.6135266,20 Z"/>
    <path d="M13.8888889,8.8647343 C13.3954106,8.8647343 12.9756522,9.17971014 12.8191787,9.61951691 C12.7978261,9.61584541 12.7760386,9.61352657 12.7536232,9.61352657 L1.3194686,9.61352657 L4.62111111,6.31193237 C4.77207729,6.16101449 4.77207729,5.9163285 4.62111111,5.76541063 C4.47024155,5.61449275 4.22555556,5.61444444 4.07458937,5.76541063 L0.113236715,9.72671498 C0.0639613527,9.77599034 0.0293719807,9.83719807 0.0122705314,9.90357488 C-0.0215458937,10.034686 0.0156521739,10.1757488 0.113236715,10.2733333 L4.07458937,14.234686 C4.15004831,14.3101449 4.2489372,14.3478744 4.3478744,14.3478744 C4.44676329,14.3478744 4.54570048,14.3101449 4.62115942,14.234686 C4.7721256,14.0837198 4.7721256,13.8390821 4.62115942,13.6881159 L1.31951691,10.3864734 L12.7536232,10.3864734 C12.7760386,10.3864734 12.7978261,10.3841546 12.8191787,10.3804831 C12.9756039,10.8202899 13.3954106,11.1352657 13.8888889,11.1352657 C14.5158937,11.1352657 15.0241546,10.6270048 15.0241546,10 C15.0241546,9.37299517 14.5158937,8.8647343 13.8888889,8.8647343 Z M13.8888889,10.3623188 C13.6890821,10.3623188 13.52657,10.1998068 13.52657,10 C13.52657,9.80019324 13.6890821,9.63768116 13.8888889,9.63768116 C14.0886957,9.63768116 14.2512077,9.80019324 14.2512077,10 C14.2512077,10.1998068 14.0886957,10.3623188 13.8888889,10.3623188 Z"/>
  </g>
</svg>
