<svg xmlns="http://www.w3.org/2000/svg" width="22" height="24" viewBox="0 0 22 24">
  <path fill="#FFF" d="M10.7808835,23.8052348 C12.1744494,23.8052348 13.3146396,22.7025281 13.3146396,21.3547755 L8.24712751,21.3547755 C8.24712751,22.7025281 9.38731773,23.8052348 10.7808835,23.8052348 Z M19.0155907,17.1532152 L19.0155907,10.4144521 C19.0155907,6.61624013 16.3551468,3.553166 12.6812006,2.69550524 L12.6812006,1.83784448 C12.6812006,0.857660758 11.794386,0 10.7808835,0 C9.76738113,0 8.88056652,0.857660758 8.88056652,1.83784448 L8.88056652,2.69550524 C5.20662026,3.553166 2.54617641,6.61624013 2.54617641,10.4144521 L2.54617641,17.1532152 L0.0124203728,19.6036745 L0.0124203728,20.8289041 L21.5493467,20.8289041 L21.5493467,19.6036745 L19.0155907,17.1532152 Z"/>
</svg>
