<svg xmlns="http://www.w3.org/2000/svg" width="20" height="25" viewBox="0 0 20 25">
    <path fill="#333" fill-rule="evenodd" d="M15.616 14H4.634c-.306 0-.634.239-.634.625a.63.63 0 0 0 .634.625h10.982c.306 0 .634-.239.634-.625S15.922 14 15.616 14m-1.985 3H6.62a.623.623 0 0 0-.619.625c0 .301.236.625.62.625h7.011a.624.624 0 0 0 .62-.625.624.624 0 0 0-.62-.625m.155-4.75c.228 0 .464-.234.464-.625 0-.295-.198-.625-.464-.625H6.464c-.228 0-.464.234-.464.625 0 .307.173.625.464.625h7.322zM1.2 22.125v-.375h17.225l.226-.005v.369c-.046.497-.452.886-.926.886H2.075a.877.877 0 0 1-.875-.875zm5-16.6V1.25h11.575c.483 0 .875.393.875.875l.001 18.373-.226.002H1.25V6.15h4.325a.626.626 0 0 0 .625-.625zM2.127 4.95L4.95 2.127V4.95H2.127zM4 7.625a.63.63 0 0 0 .634.625h10.983c.304 0 .633-.239.633-.625 0-.321-.308-.625-.633-.625H4.634C4.329 7 4 7.239 4 7.625M17.775 0H5.473L0 5.473v16.652c0 1.172.953 2.125 2.125 2.125h15.65a2.127 2.127 0 0 0 2.125-2.125V2.119C19.846.951 18.893 0 17.775 0z"/>
</svg>
