<svg xmlns="http://www.w3.org/2000/svg" width="23" height="25" viewBox="0 0 23 25">
    <path fill="#333" fill-rule="nonzero" d="M10.156 14.88V6.626h.5c4.266 0 7.754 3.489 7.754 7.754v.5h-8.254zm9.13-11.868a.842.842 0 0 1 1.215 0l1.523 1.523c.364.363.33.89-.005 1.218a.845.845 0 0 1-1.21-.003l-1.523-1.523a.842.842 0 0 1 0-1.215zM8.48 0h4.352c.512 0 .865.394.865.863a.847.847 0 0 1-.865.862H8.48a.847.847 0 0 1-.865-.863c0-.468.352-.862.865-.862zm2.176 23.275c4.918 0 8.93-3.991 8.93-8.895 0-4.903-4.012-8.894-8.93-8.894s-8.93 3.991-8.93 8.894c0 4.904 4.012 8.895 8.93 8.895zm0 1c-5.47 0-9.93-4.438-9.93-9.895 0-5.456 4.46-9.894 9.93-9.894 5.469 0 9.93 4.438 9.93 9.894 0 5.457-4.461 9.895-9.93 9.895zM0 14.38C0 8.513 4.764 3.76 10.656 3.76s10.656 4.753 10.656 10.62c0 5.868-4.764 10.62-10.656 10.62S0 20.248 0 14.38zm1 0C1 19.695 5.315 24 10.656 24c5.34 0 9.656-4.305 9.656-9.62 0-5.314-4.316-9.62-9.656-9.62C5.316 4.76 1 9.067 1 14.38z"/>
</svg>
